<svg width="20" height="20" viewBox="0 0 20 20" fill="none" xmlns="http://www.w3.org/2000/svg">
<mask id="mask0_379_10192" style="mask-type:alpha" maskUnits="userSpaceOnUse" x="0" y="0" width="20" height="20">
<circle cx="10" cy="10" r="10" fill="#D9D9D9"/>
</mask>
<g mask="url(#mask0_379_10192)">
<path d="M26.6667 1.11111C26.6667 0.497222 26.1694 0 25.5556 0H11.1111V11.1111H0V18.8889C0 19.5028 0.497222 20 1.11111 20H25.5556C26.1694 20 26.6667 19.5028 26.6667 18.8889V1.11111Z" fill="#B41F30"/>
<path d="M26.6649 2.22266H11.1094V4.44488H26.6649V2.22266Z" fill="#E6E6E6"/>
<path d="M26.6649 6.66699H11.1094V8.88921H26.6649V6.66699Z" fill="#E6E6E6"/>
<path d="M0 11.1111V13.3333H26.6667V11.1111H11.1111H0Z" fill="#E6E6E6"/>
<path d="M26.6667 15.5557H0V17.7779H26.6667V15.5557Z" fill="#E6E6E6"/>
<path d="M11.1111 11.1111H0V1.11111C0 0.497222 0.497222 0 1.11111 0H11.1111V11.1111Z" fill="#00256A"/>
<path d="M5.55441 4.40137L5.20274 5.16137H4.36719L4.9783 5.7947L4.75274 6.71026L5.55441 6.25581L6.35608 6.71026L6.13052 5.7947L6.74163 5.16137H5.90497L5.55441 4.40137Z" fill="white"/>
<path d="M2.8351 1.68262L2.48399 2.44262H1.64844L2.25899 3.07595L2.03344 3.99151L2.8351 3.53706L3.63733 3.99151L3.41122 3.07595L4.02233 2.44262H3.18566L2.8351 1.68262Z" fill="white"/>
<path d="M8.27316 1.68262L8.62427 2.44262H9.45983L8.84927 3.07595L9.07483 3.99151L8.27316 3.53706L7.47094 3.99151L7.69705 3.07595L7.08594 2.44262H7.9226L8.27316 1.68262Z" fill="white"/>
<path d="M2.8351 9.42901L2.48399 8.66901H1.64844L2.25899 8.03567L2.03344 7.12012L2.8351 7.57456L3.63733 7.12012L3.41122 8.03567L4.02233 8.66901H3.18566L2.8351 9.42901Z" fill="white"/>
<path d="M8.27316 9.42901L8.62427 8.66901H9.45983L8.84927 8.03567L9.07483 7.12012L8.27316 7.57456L7.47094 7.12012L7.69705 8.03567L7.08594 8.66901H7.9226L8.27316 9.42901Z" fill="white"/>
</g>
</svg>
