<svg width="763" height="149" viewBox="0 0 763 149" fill="none" xmlns="http://www.w3.org/2000/svg">
<path d="M67.4251 19.398V146.453H48.3516V19.398H0V2.54712H115.777V19.398H67.4251Z" fill="#FCFCFB"/>
<path d="M203.282 2.54712L258.271 146.453H239.017L224.51 108.552H160.561L146.267 146.453H127.227L182.215 2.54712H203.282ZM166.961 91.7548H218.163L192.349 24.1895L166.961 91.7548Z" fill="#FCFCFB"/>
<path d="M315.524 2.54712H296.439V146.453H315.524V2.54712Z" fill="#FCFCFB"/>
<path d="M367.688 2.54712H386.811V129.602H458.019V146.453H367.688V2.54712Z" fill="#FCFCFB"/>
<path d="M547.184 0C584.66 0 611.963 30.406 611.963 74.5C611.963 118.594 584.66 149 547.184 149C509.709 149 482.191 118.594 482.191 74.5C482.191 30.406 509.709 0 547.184 0ZM547.184 17.0966C520.256 17.0966 501.357 40.2528 501.357 74.5C501.357 108.747 520.309 131.903 547.184 131.903C574.06 131.903 593.011 108.747 593.011 74.5C593.011 40.2528 574.06 17.0966 547.184 17.0966Z" fill="#FCFCFB"/>
<path d="M674.267 146.453H655.219V2.54712H709.641C739.84 2.54712 759.102 16.76 759.102 44.2168C759.102 67.259 745.176 81.3105 722.553 85.1329L762.09 146.453H740.267L701.905 86.1019H674.32V146.453H674.267ZM708.681 69.4663C728.956 69.4663 740.267 60.4756 740.267 44.2168C740.267 27.9581 728.956 19.1827 708.681 19.1827H674.32V69.4663H708.681Z" fill="#FCFCFB"/>
</svg>
