<svg width="108" height="86" viewBox="0 0 108 86" fill="none" xmlns="http://www.w3.org/2000/svg">
<g id="Isolation_Mode" clip-path="url(#clip0_3380_4164)">
<path id="Vector" d="M14.7567 79.8529L14.784 83.6777C14.784 84.0212 14.9747 84.1678 15.2516 84.1907L15.1563 84.4472H13.3084L13.4037 84.1907C13.994 84.1586 14.2164 84.0075 14.2164 83.609V82.7295H12.7181L12.0507 83.609C11.751 84.0029 11.8782 84.1586 12.4548 84.1907L12.3594 84.4472H10.6387L10.734 84.1907C11.0246 84.1724 11.2925 84.0304 11.5604 83.6777L14.1892 80.2422V79.8529H14.7522H14.7567ZM14.2119 82.4043L14.1983 80.7736L12.9588 82.4043H14.2119Z" fill="#574245"/>
<path id="Vector_2" d="M17.4296 83.9067L17.7565 83.2059H17.6793C17.1663 83.9159 16.626 84.5114 16.0902 84.5114C15.668 84.5114 15.5953 84.1083 15.7906 83.6686L16.626 81.7585H15.9449V81.6852C16.1311 81.4699 16.4898 81.2317 16.7985 81.2317C17.1345 81.2317 17.2843 81.5432 17.0346 82.1112L16.29 83.7922C16.2083 83.98 16.1856 84.1495 16.3717 84.1495C16.6986 84.1495 17.4432 83.3662 17.7974 82.757L18.4058 81.2958H18.937V81.4241L17.8201 84.1678C18.0743 84.0762 18.3649 83.8793 18.6873 83.4991H18.996C18.5284 84.1312 18.0471 84.5022 17.6475 84.5022C17.3524 84.5022 17.2616 84.2503 17.4296 83.893" fill="#574245"/>
<path id="Vector_3" d="M20.2219 81.9234C20.2219 82.299 20.7531 82.9631 20.7531 83.4899C20.7531 84.0533 20.1811 84.5114 19.6635 84.5114C19.2639 84.5114 18.9824 84.2319 18.9824 83.8655L19.0551 83.6914C19.3547 83.9388 19.727 84.0487 19.9677 84.0487C20.1811 84.0487 20.3309 83.9388 20.3309 83.7052C20.3309 83.3479 19.8133 82.67 19.8133 82.1707C19.8133 81.6394 20.3763 81.2408 20.8712 81.2408C21.2299 81.2408 21.4115 81.4241 21.4115 81.6531C21.4115 81.8088 21.2889 81.9371 21.13 81.9371C20.8349 81.9371 20.8712 81.5752 20.5806 81.5752C20.3808 81.5752 20.2265 81.7126 20.2265 81.9234" fill="#574245"/>
<path id="Vector_4" d="M22.9507 83.5128H23.2594C22.7827 84.1449 22.2197 84.5159 21.7838 84.5159C21.4887 84.5159 21.3525 84.3006 21.4933 83.925L22.3468 81.6622H21.7838L21.911 81.3049H22.474L22.7055 80.6957L23.1868 80.4575H23.3457L23.0233 81.3049H23.827L23.6998 81.6622H22.8917L21.9473 84.1815C22.256 84.0899 22.6147 83.8884 22.9462 83.5128" fill="#574245"/>
<path id="Vector_5" d="M25.9969 81.2408C26.2784 81.2408 26.4146 81.5844 26.4283 81.8043L25.9788 82.102H25.8698C25.7926 81.9096 25.7336 81.7722 25.6246 81.7722C25.4975 81.7722 25.3568 81.9508 24.9073 82.5784L24.1445 84.4472H23.6133V84.319L24.6803 81.763H23.9992V81.6943C24.1581 81.4928 24.4669 81.2408 24.7257 81.2408C24.9845 81.2408 25.0798 81.479 25.0798 81.8363V82.1157C25.4385 81.534 25.7064 81.2408 26.0015 81.2408" fill="#574245"/>
<path id="Vector_6" d="M27.9636 84.5113C27.6685 84.5113 27.5777 84.264 27.7275 83.9021L27.9182 83.4349H27.8229C27.3053 84.1082 26.8422 84.5113 26.488 84.5113C26.2292 84.5113 26.0703 84.2594 26.0703 83.8838C26.0703 82.6882 27.4279 81.2362 28.681 81.2362C28.9171 81.2362 29.1123 81.282 29.2122 81.3736L28.1361 84.1769C28.3949 84.0853 28.681 83.8838 29.0033 83.5082H29.3121C28.8444 84.1403 28.3632 84.5113 27.9636 84.5113ZM26.824 83.9845C27.0601 83.9845 27.5277 83.5814 28.068 83.0135L28.6083 81.6943H28.4948C27.4506 81.6943 26.5652 82.8348 26.5652 83.6089C26.5652 83.8471 26.656 83.9845 26.8285 83.9845" fill="#574245"/>
<path id="Vector_7" d="M30.0423 84.1769C30.2965 84.0853 30.5917 83.8837 30.914 83.5127H31.2228C30.7551 84.1448 30.2738 84.5158 29.8743 84.5158C29.5202 84.5158 29.4566 84.2456 29.5837 83.925L31.0457 80.1139L30.6144 79.862V79.7521L31.7131 79.491H31.8266L30.0377 84.1769H30.0423Z" fill="#574245"/>
<path id="Vector_8" d="M32.8438 82.1202L31.9993 84.1769C32.2581 84.0853 32.5487 83.8883 32.8711 83.5127H33.1798C32.7121 84.1448 32.2309 84.5158 31.8313 84.5158C31.4772 84.5158 31.4136 84.2456 31.5407 83.925L32.4306 81.7629H31.7496V81.6942C31.9358 81.4789 32.2944 81.2407 32.6032 81.2407C32.9346 81.2407 33.0799 81.5431 32.8393 82.1202M32.6304 80.1826C32.6304 79.949 32.8166 79.7612 33.0481 79.7612C33.2797 79.7612 33.4704 79.949 33.4704 80.1826C33.4704 80.4162 33.2842 80.6086 33.0481 80.6086C32.812 80.6086 32.6304 80.4117 32.6304 80.1826Z" fill="#574245"/>
<path id="Vector_9" d="M35.1824 84.5113C34.8872 84.5113 34.7964 84.264 34.9463 83.9021L35.137 83.4349H35.0416C34.524 84.1082 34.0609 84.5113 33.7068 84.5113C33.448 84.5113 33.2891 84.2594 33.2891 83.8838C33.2891 82.6882 34.6466 81.2362 35.8997 81.2362C36.1358 81.2362 36.3311 81.282 36.4309 81.3736L35.3549 84.1769C35.6137 84.0853 35.8997 83.8838 36.2221 83.5082H36.5308C36.0632 84.1403 35.5819 84.5113 35.1824 84.5113ZM34.0428 83.9845C34.2788 83.9845 34.7465 83.5814 35.2868 83.0135L35.8271 81.6943H35.7136C34.6693 81.6943 33.784 82.8348 33.784 83.6089C33.784 83.8471 33.8748 83.9845 34.0473 83.9845" fill="#574245"/>
<path id="Vector_10" d="M40.1811 83.5127C39.7135 84.1449 39.2322 84.5159 38.8327 84.5159C38.4785 84.5159 38.3923 84.2456 38.5239 83.925L39.4048 81.8454C39.4547 81.7217 39.4729 81.5981 39.3457 81.5981C39.1868 81.5981 38.6465 81.7721 38.0699 82.4959L37.2754 84.4426H36.7441V84.3143L37.8111 81.7584H37.1301V81.6897C37.289 81.4881 37.5977 81.2362 37.8565 81.2362C38.1153 81.2362 38.2107 81.4744 38.2107 81.8317V82.134C38.6284 81.6622 39.0779 81.2362 39.5682 81.2362C40.0132 81.2362 40.0767 81.6393 39.8906 82.079L39.0052 84.1769C39.264 84.0853 39.5591 83.8838 39.8769 83.5082H40.1857L40.1811 83.5127Z" fill="#574245"/>
<path id="Vector_11" d="M42.9515 80.1139L42.5202 79.862V79.7521L43.6189 79.491H43.7324L42.6019 82.2714H42.6518C43.1286 81.6484 43.6325 81.2362 44.1274 81.2362C44.5678 81.2362 44.6359 81.6393 44.4498 82.079L43.5644 84.1769C43.8232 84.0853 44.1138 83.8837 44.4362 83.5081H44.7449C44.2773 84.1402 43.796 84.5113 43.3964 84.5113C43.0423 84.5113 42.9515 84.241 43.0877 83.925L43.964 81.8454C44.0139 81.7217 44.0366 81.598 43.905 81.598C43.746 81.598 43.1694 81.8179 42.5111 82.6653L41.7983 84.4471H41.2988V84.3189L42.9424 80.1139H42.9515Z" fill="#574245"/>
<path id="Vector_12" d="M46.7703 84.5113C46.4751 84.5113 46.3843 84.264 46.5342 83.9021L46.7249 83.4349H46.6295C46.1119 84.1082 45.6488 84.5113 45.2947 84.5113C45.0359 84.5113 44.877 84.2594 44.877 83.8838C44.877 82.6882 46.2345 81.2362 47.4876 81.2362C47.7237 81.2362 47.919 81.282 48.0188 81.3736L46.9428 84.1769C47.2016 84.0853 47.4876 83.8838 47.81 83.5082H48.1187C47.6511 84.1403 47.1698 84.5113 46.7703 84.5113ZM45.6306 83.9845C45.8667 83.9845 46.3344 83.5814 46.8747 83.0135L47.415 81.6943H47.3015C46.2572 81.6943 45.3718 82.8348 45.3718 83.6089C45.3718 83.8471 45.4627 83.9845 45.6352 83.9845" fill="#574245"/>
<path id="Vector_13" d="M51.769 83.5127C51.3014 84.1449 50.8201 84.5159 50.4206 84.5159C50.0664 84.5159 49.9802 84.2456 50.1118 83.925L50.9926 81.8454C51.0426 81.7217 51.0608 81.5981 50.9336 81.5981C50.7747 81.5981 50.2344 81.7721 49.6578 82.4959L48.8632 84.4426H48.332V84.3143L49.399 81.7584H48.718V81.6897C48.8769 81.4881 49.1856 81.2362 49.4444 81.2362C49.7032 81.2362 49.7985 81.4744 49.7985 81.8317V82.134C50.2163 81.6622 50.6657 81.2362 51.1561 81.2362C51.601 81.2362 51.6646 81.6393 51.4785 82.079L50.5931 84.1769C50.8519 84.0853 51.147 83.8838 51.4648 83.5082H51.7736L51.769 83.5127Z" fill="#574245"/>
<path id="Vector_14" d="M53.7522 83.4394H53.6569C53.1393 84.1128 52.6761 84.5158 52.322 84.5158C52.0632 84.5158 51.9043 84.2639 51.9043 83.8883C51.9043 82.7019 53.0893 81.2728 54.5785 81.2407L55.0099 80.1139L54.5785 79.862V79.7521L55.6773 79.491H55.7908L54.0019 84.1769C54.2607 84.0853 54.5467 83.8837 54.8691 83.5081H55.1778C54.7102 84.1402 54.2289 84.5113 53.8294 84.5113C53.5343 84.5113 53.4298 84.2639 53.5797 83.902L53.7522 83.4348V83.4394ZM53.9066 83.0134L54.406 81.6942H54.2925C53.1847 81.6942 52.3946 82.821 52.3946 83.6089C52.3946 83.8471 52.4855 83.9845 52.658 83.9845C52.9032 83.9845 53.3617 83.5814 53.9111 83.0134" fill="#574245"/>
<path id="Vector_15" d="M55.6816 83.0502L55.8633 82.5601H57.5295L57.3525 83.0502H55.6816Z" fill="#574245"/>
<path id="Vector_16" d="M58.6698 83.467C58.6698 83.8747 58.8151 84.067 59.1057 84.067C59.3962 84.067 59.7141 83.8518 59.9592 83.5128H60.2271C59.8684 84.1678 59.3054 84.5159 58.8469 84.5159C58.3883 84.5159 58.1113 84.1678 58.1113 83.5723C58.1113 82.5692 59.0603 81.2408 60.0273 81.2408C60.386 81.2408 60.6357 81.4241 60.6357 81.7264C60.6357 81.9279 60.495 82.0745 60.3134 82.0745C59.9865 82.0745 60.1227 81.5157 59.8593 81.5157C59.4053 81.5157 58.6652 82.5051 58.6652 83.4624" fill="#574245"/>
<path id="Vector_17" d="M62.9872 81.2408C63.2687 81.2408 63.4049 81.5844 63.4185 81.8043L62.969 82.102H62.86C62.7829 81.9096 62.7238 81.7722 62.6149 81.7722C62.4877 81.7722 62.347 81.9508 61.8975 82.5784L61.1347 84.4472H60.6035V84.319L61.6659 81.763H60.9849V81.6943C61.1438 81.4928 61.4526 81.2408 61.7113 81.2408C61.9701 81.2408 62.0655 81.479 62.0655 81.8363V82.1157C62.4242 81.534 62.6921 81.2408 62.9872 81.2408Z" fill="#574245"/>
<path id="Vector_18" d="M64.9538 84.5113C64.6587 84.5113 64.5679 84.264 64.7178 83.9021L64.9085 83.4349H64.8131C64.2955 84.1082 63.8324 84.5113 63.4783 84.5113C63.2195 84.5113 63.0605 84.2594 63.0605 83.8838C63.0605 82.6882 64.4181 81.2362 65.6712 81.2362C65.9073 81.2362 66.1025 81.282 66.2024 81.3736L65.1264 84.1769C65.3852 84.0853 65.6712 83.8838 65.9936 83.5082H66.3023C65.8347 84.1403 65.3534 84.5113 64.9538 84.5113ZM63.8142 83.9845C64.0503 83.9845 64.518 83.5814 65.0583 83.0135L65.5986 81.6943H65.4851C64.4408 81.6943 63.5554 82.8348 63.5554 83.6089C63.5554 83.8471 63.6462 83.9845 63.8188 83.9845" fill="#574245"/>
<path id="Vector_19" d="M66.0703 86H65.9023L67.5005 81.6576H66.9875L67.1146 81.3004H67.6322C68.0635 80.1552 68.7355 79.4865 69.4483 79.4865C69.7888 79.4865 69.975 79.6468 69.975 79.8804C69.975 80.0407 69.8342 80.1735 69.6663 80.1735C69.3439 80.1735 69.3076 79.7979 69.0715 79.7979C68.8354 79.7979 68.5266 80.4117 68.2769 81.0851L68.1997 81.3004H68.9035L68.7764 81.6576H68.0635L66.538 85.7481L66.0703 86Z" fill="#574245"/>
<path id="Vector_20" d="M70.062 83.5128H70.3708C69.8986 84.1449 69.331 84.5159 68.8952 84.5159C68.6 84.5159 68.4638 84.3006 68.6046 83.925L69.4582 81.6622H68.8952L69.0223 81.3049H69.5853L69.8168 80.6957L70.2981 80.4575H70.457L70.1347 81.3049H70.9383L70.8112 81.6622H70.003L69.0586 84.1815C69.3674 84.0899 69.726 83.8884 70.0575 83.5128" fill="#574245"/>
<path id="Vector_21" d="M73.0074 83.5128C72.6532 84.1724 72.0539 84.5159 71.5772 84.5159C71.1004 84.5159 70.8008 84.1678 70.8008 83.5723C70.8008 82.5967 71.8133 81.2408 72.8212 81.2408C73.1527 81.2408 73.4069 81.4195 73.4069 81.7447C73.4069 82.1203 73.0755 82.4684 72.349 82.8211L71.3411 83.3067C71.3365 83.3662 71.3275 83.4166 71.3275 83.467C71.3275 83.8747 71.5 84.0716 71.7769 84.0716C72.1084 84.0716 72.4762 83.8747 72.7395 83.5174H73.0074V83.5128ZM71.391 83.0502L72.0176 82.7158C72.6033 82.4043 72.8621 82.0928 72.8621 81.7768C72.8621 81.6623 72.7803 81.5386 72.6078 81.5386C72.1765 81.5386 71.5726 82.3493 71.391 83.0547" fill="#574245"/>
<path id="Vector_22" d="M75.2327 83.4394H75.1373C74.6197 84.1128 74.1566 84.5158 73.8025 84.5158C73.5437 84.5158 73.3848 84.2639 73.3848 83.8883C73.3848 82.7019 74.5698 81.2728 76.059 81.2407L76.4903 80.1139L76.059 79.862V79.7521L77.1577 79.491H77.2713L75.4824 84.1769C75.7412 84.0853 76.0272 83.8837 76.3496 83.5081H76.6583C76.1907 84.1402 75.7094 84.5113 75.3098 84.5113C75.0147 84.5113 74.9103 84.2639 75.0601 83.902L75.2327 83.4348V83.4394ZM75.387 83.0134L75.8865 81.6942H75.773C74.6651 81.6942 73.8751 82.821 73.8751 83.6089C73.8751 83.8471 73.9659 83.9845 74.1384 83.9845C74.3836 83.9845 74.8422 83.5814 75.387 83.0134Z" fill="#574245"/>
<path id="Vector_23" d="M78.0575 85.7572L77.5899 86.0045H77.4219L79.0246 81.7675H78.28V81.6988C78.4979 81.4789 78.8884 81.2453 79.1971 81.2453C79.5286 81.2453 79.6648 81.5476 79.4468 82.1248L78.053 85.7618L78.0575 85.7572ZM79.2244 80.1826C79.2244 79.949 79.4105 79.7612 79.6421 79.7612C79.8736 79.7612 80.0643 79.949 80.0643 80.1826C80.0643 80.4162 79.8782 80.6086 79.6421 80.6086C79.406 80.6086 79.2244 80.4117 79.2244 80.1826Z" fill="#574245"/>
<path id="Vector_24" d="M82.5191 82.1248C82.5191 82.9677 81.6201 84.5113 80.5078 84.5113C80.0583 84.5113 79.7949 84.154 79.7949 83.6227C79.7949 82.7799 80.6848 81.2362 81.8108 81.2362C82.2603 81.2362 82.5236 81.5935 82.5236 82.1248M81.947 82.0653C81.947 81.7034 81.8562 81.4973 81.602 81.4973C81.0253 81.4973 80.3625 82.844 80.3625 83.6868C80.3625 84.0487 80.4533 84.2548 80.7075 84.2548C81.2796 84.2548 81.947 82.9081 81.947 82.0653Z" fill="#574245"/>
<path id="Vector_25" d="M84.5077 83.9067L84.8346 83.2059H84.7574C84.2444 83.9159 83.7041 84.5114 83.1683 84.5114C82.7461 84.5114 82.6735 84.1083 82.8687 83.6686L83.7041 81.7585H83.0231V81.6852C83.2092 81.4699 83.5679 81.2317 83.8766 81.2317C84.2126 81.2317 84.3624 81.5432 84.1127 82.1112L83.3681 83.7922C83.2864 83.98 83.2637 84.1495 83.4498 84.1495C83.7767 84.1495 84.5214 83.3662 84.8755 82.757L85.4839 81.2958H86.0151V81.4241L84.8982 84.1678C85.1525 84.0762 85.443 83.8793 85.7654 83.4991H86.0741C85.6065 84.1312 85.1252 84.5022 84.7257 84.5022C84.4305 84.5022 84.3397 84.2503 84.5077 83.893" fill="#574245"/>
<path id="Vector_26" d="M88.663 81.2408C88.9445 81.2408 89.0807 81.5844 89.0943 81.8043L88.6448 82.102H88.5358C88.4586 81.9096 88.3996 81.7722 88.2907 81.7722C88.1635 81.7722 88.0228 81.9508 87.5733 82.5784L86.8105 84.4472H86.2793V84.319L87.3417 81.763H86.6607V81.6943C86.8196 81.4928 87.1283 81.2408 87.3871 81.2408C87.6459 81.2408 87.7413 81.479 87.7413 81.8363V82.1157C88.1 81.534 88.3678 81.2408 88.663 81.2408Z" fill="#574245"/>
<path id="Vector_27" d="M92.355 83.5127C91.8873 84.1449 91.4061 84.5159 91.0065 84.5159C90.6524 84.5159 90.5661 84.2456 90.6978 83.925L91.5786 81.8454C91.6285 81.7217 91.6467 81.5981 91.5196 81.5981C91.3607 81.5981 90.8204 81.7721 90.2437 82.4959L89.4492 84.4426H88.918V84.3143L89.9849 81.7584H89.3039V81.6897C89.4628 81.4881 89.7715 81.2362 90.0303 81.2362C90.2891 81.2362 90.3845 81.4744 90.3845 81.8317V82.134C90.8022 81.6622 91.2517 81.2362 91.742 81.2362C92.187 81.2362 92.2505 81.6393 92.0644 82.079L91.179 84.1769C91.4378 84.0853 91.7284 83.8838 92.0508 83.5082H92.3595L92.355 83.5127Z" fill="#574245"/>
<path id="Vector_28" d="M94.7964 83.5128C94.4423 84.1724 93.843 84.5159 93.3662 84.5159C92.8895 84.5159 92.5898 84.1678 92.5898 83.5723C92.5898 82.5967 93.6023 81.2408 94.6103 81.2408C94.9417 81.2408 95.196 81.4195 95.196 81.7447C95.196 82.1203 94.8645 82.4684 94.1381 82.8211L93.1301 83.3067C93.1256 83.3662 93.1165 83.4166 93.1165 83.467C93.1165 83.8747 93.2891 84.0716 93.566 84.0716C93.8975 84.0716 94.2652 83.8747 94.5286 83.5174H94.7964V83.5128ZM93.1801 83.0502L93.8066 82.7158C94.3923 82.4043 94.6511 82.0928 94.6511 81.7768C94.6511 81.6623 94.5694 81.5386 94.3969 81.5386C93.9656 81.5386 93.3617 82.3493 93.1801 83.0547" fill="#574245"/>
<path id="Vector_29" d="M97.5479 81.3049H98.0564C98.2153 82.6562 96.1949 86.0046 94.0337 86.0046C93.6432 86.0046 93.4707 85.7893 93.4707 85.5511C93.4707 85.3129 93.6705 85.1709 93.8339 85.1709C94.1881 85.1709 94.1154 85.6198 94.3924 85.6198C94.86 85.6198 95.3776 85.3724 95.8544 84.9648C96.0087 84.1357 96.0768 82.5691 95.9769 81.7675H95.3595V81.6988C95.5456 81.4836 95.8407 81.2454 96.1495 81.2454C96.3992 81.2454 96.4628 81.4194 96.4945 81.7492C96.5763 82.6745 96.49 83.7738 96.3583 84.4563C97.0394 83.6547 97.5297 82.5279 97.4889 81.3965L97.5479 81.3141V81.3049Z" fill="#574245"/>
<path id="Vector_30" d="M99.0832 81.9234C99.0832 82.299 99.6145 82.9631 99.6145 83.4899C99.6145 84.0533 99.0424 84.5114 98.5248 84.5114C98.1252 84.5114 97.8438 84.2319 97.8438 83.8655L97.9164 83.6914C98.2161 83.9388 98.5884 84.0487 98.829 84.0487C99.0424 84.0487 99.1922 83.9388 99.1922 83.7052C99.1922 83.3479 98.6746 82.67 98.6746 82.1707C98.6746 81.6394 99.2376 81.2408 99.7325 81.2408C100.091 81.2408 100.273 81.4241 100.273 81.6531C100.273 81.8088 100.15 81.9371 99.9913 81.9371C99.6962 81.9371 99.7325 81.5752 99.4419 81.5752C99.2422 81.5752 99.0878 81.7126 99.0878 81.9234" fill="#574245"/>
<path id="Vector_31" d="M53.2703 2.97738V2.00172C49.284 1.00774 45.4338 0.187821 42.4644 0.192402C35.7266 0.201563 29.9423 5.01573 29.9423 5.01573C29.9423 5.01573 29.0978 5.73946 29.1704 5.83565C29.2068 5.88604 29.9241 5.35011 30.0195 5.27682C31.3407 4.31033 36.6619 0.980258 42.4644 0.971097C45.4383 0.966516 49.284 1.9376 53.2749 2.9728" fill="#574245"/>
<path id="Vector_32" d="M80.9998 0.00918892C80.9363 -0.0732611 80.1417 0.476406 80.01 0.572598C78.6707 1.54368 73.3721 4.91497 67.6695 4.89206C64.0963 4.87832 59.5878 3.62783 55.1201 2.47353C55.1111 2.47353 54.8977 2.41398 54.6434 2.34985V1.55742C54.6434 1.34671 54.8386 1.09478 55.0702 1.09478C55.3018 1.09478 55.4743 1.34213 55.4788 1.55742V2.06586C55.4788 2.06586 56.3596 2.29031 56.3687 2.29031C56.3733 1.82767 56.3778 1.4429 56.3823 1.13601C56.3551 0.636726 55.7921 0.0778973 55.0657 0.0778973C54.3392 0.0778973 53.7444 0.636726 53.7444 1.14059C53.7263 6.39449 54.5571 38.7103 54.5571 38.7103L54.7115 40.8998C54.7115 41.0831 54.9249 42.329 55.0611 42.329C55.1837 42.329 55.3835 41.0922 55.3835 40.8998L55.5469 38.7058C55.5469 38.7058 56.1689 14.0257 56.3415 4.26453L55.4788 4.04008V5.12567C55.4788 5.46005 55.3063 5.78527 55.0747 5.78527C54.8432 5.78527 54.6434 5.44173 54.6434 5.12567V3.33009C54.8977 3.39422 55.1111 3.44919 55.1201 3.45377C59.5878 4.60349 64.1008 5.6616 67.6741 5.67534C74.2893 5.69824 80.1417 0.801626 80.1417 0.801626C80.1417 0.801626 81.0588 0.0824779 80.9998 0.00918892Z" fill="#574245"/>
<path id="Vector_33" d="M5.72985 60.0237V70.8338H4.10897V60.0237H0V58.59H9.83882V60.0237H5.72985Z" fill="#574245"/>
<path id="Vector_34" d="M22.9049 58.59V70.8338H21.2795V65.2226H14.7732V70.8338H13.1523V58.59H14.7732V63.7889H21.2795V58.59H22.9049Z" fill="#574245"/>
<path id="Vector_35" d="M35.1956 58.59V60.0237H28.8709V63.7889H34.2285V65.2226H28.8709V69.4001H35.1956V70.8338H27.2637V58.59H35.1956Z" fill="#574245"/>
<path id="Vector_36" d="M48.9525 60.0237V70.8338H47.3316V60.0237H43.2227V58.59H53.0615V60.0237H48.9525Z" fill="#574245"/>
<path id="Vector_37" d="M60.4999 58.59L65.1809 70.8338H63.5418L62.3069 67.6091H56.8631L55.6463 70.8338H54.0254L58.7064 58.59H60.4999ZM57.4079 66.1799H61.7666L59.5691 60.4313L57.4079 66.1799Z" fill="#574245"/>
<path id="Vector_38" d="M70.0974 58.59H68.4766V70.8338H70.0974V58.59Z" fill="#574245"/>
<path id="Vector_39" d="M74.4609 58.59H76.0864V69.4001H82.1386V70.8338H74.4609V58.59Z" fill="#574245"/>
<path id="Vector_40" d="M89.7443 58.4021C92.9225 58.4021 95.2381 60.9764 95.2381 64.7095C95.2381 68.4427 92.9225 71.017 89.7443 71.017C86.5661 71.017 84.2324 68.4427 84.2324 64.7095C84.2324 60.9764 86.5661 58.4021 89.7443 58.4021ZM89.7443 59.8496C87.4606 59.8496 85.8578 61.81 85.8578 64.7095C85.8578 67.609 87.4651 69.5695 89.7443 69.5695C92.0236 69.5695 93.6308 67.609 93.6308 64.7095C93.6308 61.81 92.0236 59.8496 89.7443 59.8496Z" fill="#574245"/>
<path id="Vector_41" d="M100.527 70.8338H98.9062V58.59H103.537C106.107 58.59 107.746 59.7992 107.746 62.1353C107.746 64.0958 106.561 65.2913 104.636 65.6165L108 70.8338H106.143L102.879 65.699H100.532V70.8338H100.527ZM103.456 64.2836C105.181 64.2836 106.143 63.5186 106.143 62.1353C106.143 60.752 105.181 60.0054 103.456 60.0054H100.532V64.2836H103.456Z" fill="#574245"/>
</g>
<defs>
<clipPath id="clip0_3380_4164">
<rect width="108" height="86" fill="white"/>
</clipPath>
</defs>
</svg>
