<svg width="60" height="49" viewBox="0 0 60 49" fill="none" xmlns="http://www.w3.org/2000/svg">
<g id="Group 10">
<path id="Vector" d="M27.7726 3.4459V2.31645C23.1796 1.1658 18.7435 0.216643 15.3222 0.221946C7.55904 0.232551 0.894418 5.80553 0.894418 5.80553C0.894418 5.80553 -0.078594 6.64333 0.00510617 6.75469C0.0469562 6.81302 0.873496 6.19262 0.983353 6.10778C2.50565 4.98894 8.63668 1.13398 15.3222 1.12338C18.7487 1.11808 23.1796 2.24222 27.7779 3.44059" fill="#3E2A2E"/>
<path id="Vector_2" d="M59.7161 0.00971876C59.6428 -0.0857272 58.7274 0.550579 58.5757 0.661933C57.0324 1.78607 50.9276 5.68875 44.3571 5.66224C40.2401 5.64633 35.0455 4.19873 29.8979 2.86249C29.8874 2.86249 29.6416 2.79356 29.3486 2.71932V1.80198C29.3486 1.55806 29.5736 1.26642 29.8404 1.26642C30.1072 1.26642 30.3059 1.55276 30.3112 1.80198V2.39056C30.3112 2.39056 31.326 2.65039 31.3365 2.65039C31.3417 2.11483 31.347 1.66942 31.3522 1.31415C31.3208 0.736168 30.6721 0.089257 29.8351 0.089257C28.9981 0.089257 28.3128 0.736168 28.3128 1.31945C28.2919 7.40148 29.2492 44.811 29.2492 44.811L29.4271 47.3456C29.4271 47.5577 29.673 49 29.8299 49C29.9711 49 30.2013 47.5683 30.2013 47.3456L30.3896 44.8057C30.3896 44.8057 31.1063 16.2355 31.3051 4.93579L30.3112 4.67596V5.93267C30.3112 6.31976 30.1124 6.69624 29.8456 6.69624C29.5788 6.69624 29.3486 6.29854 29.3486 5.93267V3.85407C29.6416 3.9283 29.8874 3.99194 29.8979 3.99724C35.0455 5.32818 40.2453 6.55307 44.3623 6.56898C51.9843 6.59549 58.7274 0.92706 58.7274 0.92706C58.7274 0.92706 59.7841 0.0945596 59.7161 0.00971876Z" fill="#3E2A2E"/>
</g>
</svg>
