<svg width="60" height="49" viewBox="0 0 60 49" fill="none" xmlns="http://www.w3.org/2000/svg">
<path d="M27.7726 3.4459V2.31645C23.1796 1.1658 18.7435 0.216643 15.3222 0.221946C7.55904 0.232551 0.894418 5.80553 0.894418 5.80553C0.894418 5.80553 -0.078594 6.64333 0.00510617 6.75469C0.0469562 6.81302 0.873496 6.19262 0.983353 6.10778C2.50565 4.98894 8.63668 1.13398 15.3222 1.12338C18.7487 1.11808 23.1796 2.24222 27.7779 3.44059" fill="#FCFCFB"/>
<path d="M59.72 0.00971876C59.6467 -0.0857272 58.7313 0.550579 58.5796 0.661933C57.0363 1.78607 50.9315 5.68875 44.361 5.66224C40.244 5.64633 35.0494 4.19873 29.9018 2.86249C29.8914 2.86249 29.6455 2.79356 29.3525 2.71932V1.80198C29.3525 1.55806 29.5775 1.26642 29.8443 1.26642C30.1111 1.26642 30.3099 1.55276 30.3151 1.80198V2.39056C30.3151 2.39056 31.3299 2.65039 31.3404 2.65039C31.3456 2.11483 31.3509 1.66942 31.3561 1.31415C31.3247 0.736168 30.676 0.089257 29.839 0.089257C29.002 0.089257 28.3167 0.736168 28.3167 1.31945C28.2958 7.40148 29.2531 44.811 29.2531 44.811L29.431 47.3456C29.431 47.5577 29.6769 49 29.8338 49C29.975 49 30.2052 47.5683 30.2052 47.3456L30.3935 44.8057C30.3935 44.8057 31.1102 16.2355 31.309 4.93579L30.3151 4.67596V5.93267C30.3151 6.31976 30.1163 6.69624 29.8495 6.69624C29.5827 6.69624 29.3525 6.29854 29.3525 5.93267V3.85407C29.6455 3.9283 29.8914 3.99194 29.9018 3.99724C35.0494 5.32818 40.2492 6.55307 44.3662 6.56898C51.9882 6.59549 58.7313 0.92706 58.7313 0.92706C58.7313 0.92706 59.788 0.0945596 59.72 0.00971876Z" fill="#FCFCFB"/>
</svg>
