<svg width="119" height="94" viewBox="0 0 119 94" fill="none" xmlns="http://www.w3.org/2000/svg">
<g clip-path="url(#clip0_161_5128)">
<path d="M16.2592 87.2811L16.2892 91.4616C16.2892 91.8371 16.4993 91.9973 16.8045 92.0224L16.6994 92.3027H14.6633L14.7683 92.0224C15.4187 91.9873 15.6638 91.8221 15.6638 91.3865V90.4252H14.0129L13.2775 91.3865C12.9473 91.8171 13.0874 91.9873 13.7228 92.0224L13.6177 92.3027H11.7217L11.8267 92.0224C12.1469 92.0023 12.4421 91.8471 12.7372 91.4616L15.6338 87.7066V87.2811H16.2542H16.2592ZM15.6588 90.0698L15.6438 88.2874L14.2781 90.0698H15.6588Z" fill="#FCFCFB"/>
<path d="M19.2057 91.712L19.5659 90.9459H19.4808C18.9155 91.722 18.3202 92.3728 17.7299 92.3728C17.2646 92.3728 17.1846 91.9323 17.3997 91.4516L18.3202 89.3638H17.5698V89.2837C17.7749 89.0484 18.1701 88.7881 18.5103 88.7881C18.8805 88.7881 19.0456 89.1285 18.7704 89.7493L17.95 91.5868C17.8599 91.7921 17.8349 91.9773 18.04 91.9773C18.4002 91.9773 19.2207 91.1212 19.6109 90.4553L20.2813 88.8582H20.8666V88.9983L19.6359 91.9973C19.9161 91.8972 20.2362 91.6819 20.5914 91.2664H20.9316C20.4163 91.9573 19.886 92.3628 19.4458 92.3628C19.1206 92.3628 19.0206 92.0875 19.2057 91.6969" fill="#FCFCFB"/>
<path d="M22.2818 89.5441C22.2818 89.9546 22.8671 90.6806 22.8671 91.2564C22.8671 91.8722 22.2367 92.3728 21.6664 92.3728C21.2262 92.3728 20.916 92.0674 20.916 91.6669L20.9961 91.4766C21.3262 91.747 21.7365 91.8672 22.0016 91.8672C22.2367 91.8672 22.4018 91.747 22.4018 91.4917C22.4018 91.1011 21.8315 90.3602 21.8315 89.8144C21.8315 89.2337 22.4519 88.7981 22.9972 88.7981C23.3924 88.7981 23.5925 88.9983 23.5925 89.2487C23.5925 89.4189 23.4574 89.5591 23.2823 89.5591C22.9571 89.5591 22.9972 89.1636 22.677 89.1636C22.4569 89.1636 22.2868 89.3138 22.2868 89.5441" fill="#FCFCFB"/>
<path d="M25.2884 91.2814H25.6286C25.1033 91.9723 24.483 92.3778 24.0027 92.3778C23.6775 92.3778 23.5274 92.1425 23.6825 91.732L24.623 89.2587H24.0027L24.1428 88.8682H24.7631L25.0183 88.2023L25.5486 87.9419H25.7236L25.3685 88.8682H26.2539L26.1139 89.2587H25.2234L24.1828 92.0124C24.523 91.9122 24.9182 91.6919 25.2834 91.2814" fill="#FCFCFB"/>
<path d="M28.646 88.7981C28.9561 88.7981 29.1062 89.1736 29.1212 89.4139L28.626 89.7393H28.5059C28.4208 89.5291 28.3558 89.3789 28.2357 89.3789C28.0957 89.3789 27.9406 89.5741 27.4453 90.26L26.6049 92.3027H26.0195V92.1626L27.1952 89.3688H26.4448V89.2937C26.6199 89.0734 26.96 88.7981 27.2452 88.7981C27.5304 88.7981 27.6354 89.0584 27.6354 89.4489V89.7544C28.0306 89.1185 28.3258 88.7981 28.651 88.7981" fill="#FCFCFB"/>
<path d="M30.8117 92.3728C30.4865 92.3728 30.3865 92.1025 30.5516 91.7069L30.7617 91.1963H30.6566C30.0863 91.9322 29.5761 92.3728 29.1858 92.3728C28.9007 92.3728 28.7256 92.0975 28.7256 91.6869C28.7256 90.3802 30.2214 88.7931 31.6022 88.7931C31.8623 88.7931 32.0774 88.8431 32.1875 88.9433L31.0018 92.0073C31.287 91.9072 31.6022 91.6869 31.9574 91.2764H32.2975C31.7823 91.9673 31.252 92.3728 30.8117 92.3728ZM29.556 91.7971C29.8162 91.7971 30.3315 91.3565 30.9268 90.7357L31.5221 89.2937H31.397C30.2464 89.2937 29.2709 90.5404 29.2709 91.3865C29.2709 91.6469 29.3709 91.7971 29.561 91.7971" fill="#FCFCFB"/>
<path d="M33.1029 92.0074C33.3831 91.9072 33.7083 91.6869 34.0635 91.2814H34.4037C33.8884 91.9723 33.3581 92.3778 32.9178 92.3778C32.5276 92.3778 32.4576 92.0825 32.5977 91.732L34.2085 87.5664L33.7333 87.2911V87.1709L34.9439 86.8855H35.069L33.0979 92.0074H33.1029Z" fill="#FCFCFB"/>
<path d="M36.1897 89.7594L35.2592 92.0073C35.5444 91.9072 35.8645 91.6919 36.2197 91.2814H36.5599C36.0446 91.9723 35.5143 92.3778 35.0741 92.3778C34.6839 92.3778 34.6138 92.0824 34.7539 91.732L35.7345 89.3688H34.984V89.2937C35.1892 89.0584 35.5844 88.7981 35.9246 88.7981C36.2898 88.7981 36.4498 89.1285 36.1847 89.7594M35.9546 87.6415C35.9546 87.3862 36.1597 87.1809 36.4148 87.1809C36.67 87.1809 36.8801 87.3862 36.8801 87.6415C36.8801 87.8969 36.675 88.1072 36.4148 88.1072C36.1547 88.1072 35.9546 87.8919 35.9546 87.6415Z" fill="#FCFCFB"/>
<path d="M38.7658 92.3728C38.4406 92.3728 38.3406 92.1025 38.5057 91.7069L38.7158 91.1963H38.6107C38.0404 91.9322 37.5302 92.3728 37.1399 92.3728C36.8548 92.3728 36.6797 92.0975 36.6797 91.6869C36.6797 90.3802 38.1755 88.7931 39.5563 88.7931C39.8164 88.7931 40.0315 88.8431 40.1416 88.9433L38.9559 92.0073C39.2411 91.9072 39.5563 91.6869 39.9115 91.2764H40.2516C39.7364 91.9673 39.2061 92.3728 38.7658 92.3728ZM37.5101 91.7971C37.7703 91.7971 38.2856 91.3565 38.8809 90.7357L39.4762 89.2937H39.3511C38.2005 89.2937 37.225 90.5404 37.225 91.3865C37.225 91.6469 37.325 91.7971 37.5151 91.7971" fill="#FCFCFB"/>
<path d="M44.2744 91.2814C43.7591 91.9723 43.2288 92.3778 42.7886 92.3778C42.3983 92.3778 42.3033 92.0824 42.4484 91.732L43.4189 89.459C43.4739 89.3238 43.4939 89.1886 43.3539 89.1886C43.1788 89.1886 42.5834 89.3789 41.9481 90.1699L41.0726 92.2977H40.4873V92.1576L41.6629 89.3638H40.9125V89.2887C41.0876 89.0684 41.4278 88.7931 41.713 88.7931C41.9981 88.7931 42.1032 89.0534 42.1032 89.4439V89.7744C42.5634 89.2587 43.0587 88.7931 43.599 88.7931C44.0893 88.7931 44.1593 89.2337 43.9542 89.7143L42.9787 92.0073C43.2638 91.9072 43.589 91.6869 43.9392 91.2764H44.2794L44.2744 91.2814Z" fill="#FCFCFB"/>
<path d="M47.3259 87.5664L46.8506 87.2911V87.1709L48.0613 86.8855H48.1863L46.9407 89.9246H46.9957C47.521 89.2437 48.0763 88.7931 48.6216 88.7931C49.1069 88.7931 49.1819 89.2337 48.9768 89.7143L48.0012 92.0074C48.2864 91.9072 48.6066 91.6869 48.9618 91.2764H49.302C48.7867 91.9673 48.2564 92.3728 47.8161 92.3728C47.4259 92.3728 47.3259 92.0774 47.476 91.732L48.4415 89.459C48.4965 89.3238 48.5215 89.1886 48.3765 89.1886C48.2014 89.1886 47.566 89.4289 46.8406 90.3552L46.0552 92.3027H45.5049V92.1626L47.3159 87.5664H47.3259Z" fill="#FCFCFB"/>
<path d="M51.5334 92.3728C51.2082 92.3728 51.1082 92.1025 51.2733 91.7069L51.4834 91.1963H51.3783C50.808 91.9322 50.2977 92.3728 49.9075 92.3728C49.6224 92.3728 49.4473 92.0975 49.4473 91.6869C49.4473 90.3802 50.9431 88.7931 52.3238 88.7931C52.584 88.7931 52.7991 88.8431 52.9092 88.9433L51.7235 92.0073C52.0087 91.9072 52.3238 91.6869 52.679 91.2764H53.0192C52.5039 91.9673 51.9736 92.3728 51.5334 92.3728ZM50.2777 91.7971C50.5379 91.7971 51.0531 91.3565 51.6485 90.7357L52.2438 89.2937H52.1187C50.9681 89.2937 49.9926 90.5404 49.9926 91.3865C49.9926 91.6469 50.0926 91.7971 50.2827 91.7971" fill="#FCFCFB"/>
<path d="M57.041 91.2814C56.5257 91.9723 55.9954 92.3778 55.5552 92.3778C55.165 92.3778 55.0699 92.0824 55.215 91.732L56.1855 89.459C56.2405 89.3238 56.2606 89.1886 56.1205 89.1886C55.9454 89.1886 55.3501 89.3789 54.7147 90.1699L53.8392 92.2977H53.2539V92.1576L54.4296 89.3638H53.6791V89.2887C53.8542 89.0684 54.1944 88.7931 54.4796 88.7931C54.7647 88.7931 54.8698 89.0534 54.8698 89.4439V89.7744C55.33 89.2587 55.8253 88.7931 56.3656 88.7931C56.8559 88.7931 56.9259 89.2337 56.7208 89.7143L55.7453 92.0073C56.0304 91.9072 56.3556 91.6869 56.7058 91.2764H57.046L57.041 91.2814Z" fill="#FCFCFB"/>
<path d="M59.2275 91.2013H59.1225C58.5521 91.9373 58.0419 92.3778 57.6517 92.3778C57.3665 92.3778 57.1914 92.1025 57.1914 91.6919C57.1914 90.3952 58.4971 88.8331 60.138 88.7981L60.6133 87.5664L60.138 87.2911V87.1709L61.3487 86.8855H61.4737L59.5027 92.0074C59.7878 91.9072 60.103 91.6869 60.4582 91.2764H60.7984C60.2831 91.9673 59.7528 92.3728 59.3126 92.3728C58.9874 92.3728 58.8723 92.1025 59.0374 91.707L59.2275 91.1963V91.2013ZM59.3976 90.7357L59.9479 89.2937H59.8228C58.6022 89.2937 57.7317 90.5254 57.7317 91.3865C57.7317 91.6469 57.8318 91.7971 58.0219 91.7971C58.292 91.7971 58.7973 91.3565 59.4026 90.7357" fill="#FCFCFB"/>
<path d="M61.3535 90.7757L61.5536 90.24H63.3896L63.1945 90.7757H61.3535Z" fill="#FCFCFB"/>
<path d="M64.6456 91.2313C64.6456 91.6769 64.8057 91.8872 65.1259 91.8872C65.446 91.8872 65.7962 91.6519 66.0664 91.2814H66.3615C65.9663 91.9973 65.346 92.3778 64.8407 92.3778C64.3354 92.3778 64.0303 91.9973 64.0303 91.3465C64.0303 90.25 65.0758 88.7981 66.1414 88.7981C66.5366 88.7981 66.8118 88.9983 66.8118 89.3288C66.8118 89.5491 66.6567 89.7093 66.4566 89.7093C66.0964 89.7093 66.2465 89.0985 65.9563 89.0985C65.4561 89.0985 64.6406 90.1799 64.6406 91.2263" fill="#FCFCFB"/>
<path d="M69.4028 88.7981C69.713 88.7981 69.8631 89.1736 69.8781 89.4139L69.3828 89.7393H69.2627C69.1777 89.5291 69.1126 89.3789 68.9926 89.3789C68.8525 89.3789 68.6974 89.5741 68.2021 90.26L67.3617 92.3027H66.7764V92.1626L67.947 89.3688H67.1966V89.2937C67.3717 89.0734 67.7119 88.7981 67.997 88.7981C68.2822 88.7981 68.3872 89.0584 68.3872 89.4489V89.7544C68.7825 89.1185 69.0776 88.7981 69.4028 88.7981Z" fill="#FCFCFB"/>
<path d="M71.5695 92.3728C71.2444 92.3728 71.1443 92.1025 71.3094 91.7069L71.5195 91.1963H71.4145C70.8441 91.9322 70.3339 92.3728 69.9436 92.3728C69.6585 92.3728 69.4834 92.0975 69.4834 91.6869C69.4834 90.3802 70.9792 88.7931 72.36 88.7931C72.6201 88.7931 72.8352 88.8431 72.9453 88.9433L71.7596 92.0073C72.0448 91.9072 72.36 91.6869 72.7152 91.2764H73.0553C72.5401 91.9673 72.0098 92.3728 71.5695 92.3728ZM70.3139 91.7971C70.574 91.7971 71.0893 91.3565 71.6846 90.7357L72.2799 89.2937H72.1549C71.0042 89.2937 70.0287 90.5404 70.0287 91.3865C70.0287 91.6469 70.1288 91.7971 70.3189 91.7971" fill="#FCFCFB"/>
<path d="M72.7994 94H72.6143L74.3752 89.2537H73.8099L73.95 88.8632H74.5203C74.9956 87.6115 75.736 86.8805 76.5214 86.8805C76.8966 86.8805 77.1017 87.0558 77.1017 87.3111C77.1017 87.4863 76.9466 87.6315 76.7615 87.6315C76.4063 87.6315 76.3663 87.221 76.1062 87.221C75.846 87.221 75.5058 87.8919 75.2307 88.6279L75.1456 88.8632H75.9211L75.781 89.2537H74.9956L73.3146 93.7246L72.7994 94Z" fill="#FCFCFB"/>
<path d="M77.1976 91.2814H77.5378C77.0175 91.9723 76.3921 92.3778 75.9119 92.3778C75.5867 92.3778 75.4366 92.1425 75.5917 91.732L76.5322 89.2587H75.9119L76.052 88.8682H76.6723L76.9274 88.2023L77.4577 87.9419H77.6328L77.2776 88.8682H78.1631L78.023 89.2587H77.1325L76.092 92.0124C76.4322 91.9122 76.8274 91.6919 77.1926 91.2814" fill="#FCFCFB"/>
<path d="M80.444 91.2814C80.0538 92.0023 79.3934 92.3778 78.8682 92.3778C78.3429 92.3778 78.0127 91.9973 78.0127 91.3465C78.0127 90.28 79.1283 88.7981 80.2389 88.7981C80.6041 88.7981 80.8843 88.9933 80.8843 89.3488C80.8843 89.7594 80.5191 90.1399 79.7186 90.5254L78.608 91.0561C78.603 91.1212 78.593 91.1762 78.593 91.2313C78.593 91.6769 78.7831 91.8922 79.0883 91.8922C79.4535 91.8922 79.8587 91.6769 80.1489 91.2864H80.444V91.2814ZM78.6631 90.7757L79.3534 90.4102C79.9988 90.0698 80.2839 89.7293 80.2839 89.3839C80.2839 89.2587 80.1939 89.1235 80.0038 89.1235C79.5285 89.1235 78.8632 90.0097 78.6631 90.7807" fill="#FCFCFB"/>
<path d="M82.8955 91.2013H82.7904C82.2201 91.9373 81.7098 92.3778 81.3196 92.3778C81.0345 92.3778 80.8594 92.1025 80.8594 91.6919C80.8594 90.3952 82.1651 88.8331 83.806 88.7981L84.2812 87.5664L83.806 87.2911V87.1709L85.0166 86.8855H85.1417L83.1706 92.0074C83.4558 91.9072 83.771 91.6869 84.1262 91.2764H84.4663C83.9511 91.9673 83.4208 92.3728 82.9805 92.3728C82.6554 92.3728 82.5403 92.1025 82.7054 91.707L82.8955 91.1963V91.2013ZM83.0656 90.7357L83.6159 89.2937H83.4908C82.2701 89.2937 81.3997 90.5254 81.3997 91.3865C81.3997 91.6469 81.4997 91.7971 81.6898 91.7971C81.96 91.7971 82.4652 91.3565 83.0656 90.7357Z" fill="#FCFCFB"/>
<path d="M86.007 93.7346L85.4917 94.005H85.3066L87.0726 89.3738H86.2522V89.2987C86.4923 89.0584 86.9225 88.8031 87.2627 88.8031C87.6279 88.8031 87.778 89.1335 87.5379 89.7644L86.002 93.7396L86.007 93.7346ZM87.2927 87.6415C87.2927 87.3862 87.4978 87.1809 87.753 87.1809C88.0081 87.1809 88.2182 87.3862 88.2182 87.6415C88.2182 87.8969 88.0131 88.1072 87.753 88.1072C87.4928 88.1072 87.2927 87.8919 87.2927 87.6415Z" fill="#FCFCFB"/>
<path d="M90.9245 89.7644C90.9245 90.6856 89.934 92.3728 88.7083 92.3728C88.213 92.3728 87.9229 91.9823 87.9229 91.4015C87.9229 90.4803 88.9034 88.7931 90.1441 88.7931C90.6393 88.7931 90.9295 89.1836 90.9295 89.7644M90.2941 89.6993C90.2941 89.3038 90.1941 89.0785 89.9139 89.0785C89.2786 89.0785 88.5482 90.5504 88.5482 91.4716C88.5482 91.8672 88.6482 92.0925 88.9284 92.0925C89.5587 92.0925 90.2941 90.6205 90.2941 89.6993Z" fill="#FCFCFB"/>
<path d="M93.1158 91.712L93.476 90.9459H93.391C92.8257 91.722 92.2303 92.3728 91.64 92.3728C91.1748 92.3728 91.0947 91.9323 91.3098 91.4516L92.2303 89.3638H91.4799V89.2837C91.685 89.0484 92.0803 88.7881 92.4205 88.7881C92.7907 88.7881 92.9557 89.1285 92.6806 89.7493L91.8601 91.5868C91.7701 91.7921 91.7451 91.9773 91.9502 91.9773C92.3104 91.9773 93.1308 91.1212 93.5211 90.4553L94.1914 88.8582H94.7767V88.9983L93.5461 91.9973C93.8262 91.8972 94.1464 91.6819 94.5016 91.2664H94.8418C94.3265 91.9573 93.7962 92.3628 93.356 92.3628C93.0308 92.3628 92.9307 92.0875 93.1158 91.6969" fill="#FCFCFB"/>
<path d="M97.6938 88.7981C98.004 88.7981 98.1541 89.1736 98.1691 89.4139L97.6738 89.7393H97.5537C97.4687 89.5291 97.4037 89.3789 97.2836 89.3789C97.1435 89.3789 96.9884 89.5741 96.4932 90.26L95.6527 92.3027H95.0674V92.1626L96.238 89.3688H95.4876V89.2937C95.6627 89.0734 96.0029 88.7981 96.2881 88.7981C96.5732 88.7981 96.6783 89.0584 96.6783 89.4489V89.7544C97.0735 89.1185 97.3686 88.7981 97.6938 88.7981Z" fill="#FCFCFB"/>
<path d="M101.761 91.2814C101.245 91.9723 100.715 92.3778 100.275 92.3778C99.8847 92.3778 99.7896 92.0824 99.9347 91.732L100.905 89.459C100.96 89.3238 100.98 89.1886 100.84 89.1886C100.665 89.1886 100.07 89.3789 99.4344 90.1699L98.559 92.2977H97.9736V92.1576L99.1493 89.3638H98.3989V89.2887C98.574 89.0684 98.9141 88.7931 99.1993 88.7931C99.4845 88.7931 99.5895 89.0534 99.5895 89.4439V89.7744C100.05 89.2587 100.545 88.7931 101.085 88.7931C101.576 88.7931 101.646 89.2337 101.441 89.7143L100.465 92.0073C100.75 91.9072 101.07 91.6869 101.426 91.2764H101.766L101.761 91.2814Z" fill="#FCFCFB"/>
<path d="M104.452 91.2814C104.062 92.0023 103.401 92.3778 102.876 92.3778C102.351 92.3778 102.021 91.9973 102.021 91.3465C102.021 90.28 103.136 88.7981 104.247 88.7981C104.612 88.7981 104.892 88.9933 104.892 89.3488C104.892 89.7594 104.527 90.1399 103.726 90.5254L102.616 91.0561C102.611 91.1212 102.601 91.1762 102.601 91.2313C102.601 91.6769 102.791 91.8922 103.096 91.8922C103.461 91.8922 103.867 91.6769 104.157 91.2864H104.452V91.2814ZM102.671 90.7757L103.361 90.4102C104.007 90.0698 104.292 89.7293 104.292 89.3839C104.292 89.2587 104.202 89.1235 104.012 89.1235C103.536 89.1235 102.871 90.0097 102.671 90.7807" fill="#FCFCFB"/>
<path d="M107.484 88.8682H108.044C108.219 90.3451 105.993 94.005 103.612 94.005C103.181 94.005 102.991 93.7697 102.991 93.5093C102.991 93.249 103.211 93.0938 103.391 93.0938C103.782 93.0938 103.702 93.5844 104.007 93.5844C104.522 93.5844 105.092 93.3141 105.618 92.8685C105.788 91.9623 105.863 90.25 105.753 89.3738H105.072V89.2987C105.277 89.0634 105.603 88.8031 105.943 88.8031C106.218 88.8031 106.288 88.9933 106.323 89.3538C106.413 90.3652 106.318 91.5668 106.173 92.3128C106.923 91.4366 107.464 90.205 107.419 88.9683L107.484 88.8782V88.8682Z" fill="#FCFCFB"/>
<path d="M109.174 89.5441C109.174 89.9546 109.76 90.6806 109.76 91.2564C109.76 91.8722 109.129 92.3728 108.559 92.3728C108.119 92.3728 107.809 92.0674 107.809 91.6669L107.889 91.4766C108.219 91.747 108.629 91.8672 108.894 91.8672C109.129 91.8672 109.294 91.747 109.294 91.4917C109.294 91.1011 108.724 90.3602 108.724 89.8144C108.724 89.2337 109.344 88.7981 109.89 88.7981C110.285 88.7981 110.485 88.9983 110.485 89.2487C110.485 89.4189 110.35 89.5591 110.175 89.5591C109.85 89.5591 109.89 89.1636 109.57 89.1636C109.349 89.1636 109.179 89.3138 109.179 89.5441" fill="#FCFCFB"/>
<path d="M58.6971 3.25433V2.18791C54.3047 1.10146 50.0624 0.205273 46.7906 0.210279C39.3665 0.220293 32.993 5.48229 32.993 5.48229C32.993 5.48229 32.0625 6.27334 32.1426 6.37848C32.1826 6.43356 32.973 5.84778 33.0781 5.76767C34.5339 4.71127 40.3971 1.07142 46.7906 1.06141C50.0674 1.0564 54.3047 2.11782 58.7021 3.24932" fill="#FCFCFB"/>
<path d="M89.2485 0.0100119C89.1785 -0.080108 88.303 0.520691 88.1579 0.625831C86.6821 1.68724 80.8439 5.37214 74.5605 5.34711C70.6233 5.33209 65.6556 3.96527 60.7329 2.70359C60.7229 2.70359 60.4878 2.63851 60.2077 2.56841V1.70226C60.2077 1.47196 60.4228 1.19659 60.6779 1.19659C60.9331 1.19659 61.1232 1.46695 61.1282 1.70226V2.258C61.1282 2.258 62.0987 2.50333 62.1087 2.50333C62.1137 1.99766 62.1187 1.5771 62.1237 1.24165C62.0937 0.695924 61.4734 0.0851117 60.6729 0.0851117C59.8725 0.0851117 59.2171 0.695924 59.2171 1.24666C59.1971 6.98929 60.1126 42.3113 60.1126 42.3113L60.2827 44.7044C60.2827 44.9047 60.5178 46.2665 60.6679 46.2665C60.803 46.2665 61.0231 44.9147 61.0231 44.7044L61.2032 42.3063C61.2032 42.3063 61.8886 15.3304 62.0787 4.6612L61.1282 4.41587V5.60245C61.1282 5.96793 60.9381 6.32341 60.6829 6.32341C60.4278 6.32341 60.2077 5.94791 60.2077 5.60245V3.63984C60.4878 3.70993 60.7229 3.77001 60.7329 3.77502C65.6556 5.03169 70.6284 6.18823 74.5655 6.20325C81.8545 6.22828 88.303 0.876164 88.303 0.876164C88.303 0.876164 89.3136 0.0901184 89.2485 0.0100119Z" fill="#FCFCFB"/>
<path d="M6.31345 65.6072V77.423H4.52747V65.6072H0V64.0402H10.8409V65.6072H6.31345Z" fill="#FCFCFB"/>
<path d="M25.239 64.0402V77.423H23.4481V71.2898H16.2791V77.423H14.4932V64.0402H16.2791V69.7227H23.4481V64.0402H25.239Z" fill="#FCFCFB"/>
<path d="M38.7808 64.0402V65.6072H31.812V69.7227H37.7152V71.2898H31.812V75.8559H38.7808V77.423H30.041V64.0402H38.7808Z" fill="#FCFCFB"/>
<path d="M53.9394 65.6072V77.423H52.1535V65.6072H47.626V64.0402H58.4669V65.6072H53.9394Z" fill="#FCFCFB"/>
<path d="M66.6612 64.0402L71.8191 77.423H70.0131L68.6523 73.8983H62.6541L61.3133 77.423H59.5273L64.6852 64.0402H66.6612ZM63.2544 72.3362H68.057L65.6357 66.0528L63.2544 72.3362Z" fill="#FCFCFB"/>
<path d="M77.2371 64.0402H75.4512V77.423H77.2371V64.0402Z" fill="#FCFCFB"/>
<path d="M82.0449 64.0402H83.8359V75.8559H90.5045V77.423H82.0449V64.0402Z" fill="#FCFCFB"/>
<path d="M98.8839 63.8349C102.386 63.8349 104.937 66.6486 104.937 70.7291C104.937 74.8095 102.386 77.6232 98.8839 77.6232C95.382 77.6232 92.8105 74.8095 92.8105 70.7291C92.8105 66.6486 95.382 63.8349 98.8839 63.8349ZM98.8839 65.417C96.3675 65.417 94.6015 67.5598 94.6015 70.7291C94.6015 73.8983 96.3725 76.0411 98.8839 76.0411C101.395 76.0411 103.166 73.8983 103.166 70.7291C103.166 67.5598 101.395 65.417 98.8839 65.417Z" fill="#FCFCFB"/>
<path d="M110.765 77.423H108.979V64.0402H114.082C116.914 64.0402 118.72 65.3619 118.72 67.9153C118.72 70.0582 117.414 71.3649 115.293 71.7204L119 77.423H116.954L113.357 71.8105H110.77V77.423H110.765ZM113.992 70.2634C115.893 70.2634 116.954 69.4273 116.954 67.9153C116.954 66.4033 115.893 65.5872 113.992 65.5872H110.77V70.2634H113.992Z" fill="#FCFCFB"/>
</g>
<defs>
<clipPath id="clip0_161_5128">
<rect width="119" height="94" fill="white"/>
</clipPath>
</defs>
</svg>
