<svg width="238" height="47" viewBox="0 0 238 47" fill="none" xmlns="http://www.w3.org/2000/svg">
<g id="Group 20">
<path id="Vector" d="M21.2668 6.56478V46.2054H15.316V6.56478H0.230469V1.30737H36.3523V6.56478H21.2668Z" fill="#FCFCFB"/>
<path id="Vector_2" d="M63.6548 1.30737L80.811 46.2054H74.8038L70.2777 34.3804H50.326L45.8664 46.2054H39.9258L57.0819 1.30737H63.6548ZM52.3228 29.1398H68.2975L60.2436 8.0597L52.3228 29.1398Z" fill="#FCFCFB"/>
<path id="Vector_3" d="M98.6729 1.30737H92.7188V46.2054H98.6729V1.30737Z" fill="#FCFCFB"/>
<path id="Vector_4" d="M114.947 1.30737H120.914V40.948H143.13V46.2054H114.947V1.30737Z" fill="#FCFCFB"/>
<path id="Vector_5" d="M170.949 0.512695C182.642 0.512695 191.16 9.99923 191.16 23.7564C191.16 37.5135 182.642 47 170.949 47C159.257 47 150.672 37.5135 150.672 23.7564C150.672 9.99923 159.257 0.512695 170.949 0.512695ZM170.949 5.84676C162.548 5.84676 156.652 13.0714 156.652 23.7564C156.652 34.4414 162.564 41.666 170.949 41.666C179.334 41.666 185.247 34.4414 185.247 23.7564C185.247 13.0714 179.334 5.84676 170.949 5.84676Z" fill="#FCFCFB"/>
<path id="Vector_6" d="M210.599 46.2054H204.656V1.30737H221.636C231.058 1.30737 237.067 5.74173 237.067 14.3081C237.067 21.4972 232.723 25.8812 225.664 27.0738L237.999 46.2054H231.191L219.222 27.3761H210.616V46.2054H210.599ZM221.336 22.1859C227.662 22.1859 231.191 19.3808 231.191 14.3081C231.191 9.23548 227.662 6.4976 221.336 6.4976H210.616V22.1859H221.336Z" fill="#FCFCFB"/>
</g>
</svg>
