<svg width="22" height="24" viewBox="0 0 22 24" fill="none" xmlns="http://www.w3.org/2000/svg">
<path fill-rule="evenodd" clip-rule="evenodd" d="M18.773 8.259C19.771 6.312 21.629 2.607 19.462 2.318C17.7336 2.05992 15.9875 1.93954 14.24 1.958C14.288 1.66067 14.3113 1.36133 14.31 1.06C14.25 -0.238 12.493 0.0200004 11.983 0.0200004C11.4821 -0.00307006 10.9806 0.0508917 10.496 0.18C7.13 0.91 7.36 0.75 6.272 1.02C5.37549 1.23517 4.5123 1.57089 3.706 2.018C3.52466 2.15408 3.38597 2.33912 3.30625 2.55136C3.22653 2.7636 3.2091 2.99419 3.256 3.216C3.256 3.456 3.996 6.701 4.146 7.28C4.405 8.338 4.515 8.508 5.054 10.695C5.124 10.985 5.134 11.494 5.564 11.534C5.60335 11.538 5.64311 11.5342 5.68098 11.5228C5.71885 11.5113 5.75409 11.4925 5.78467 11.4674C5.81525 11.4423 5.84056 11.4115 5.85915 11.3765C5.87774 11.3416 5.88925 11.3034 5.893 11.264C5.893 10.934 5.383 9.676 4.774 5.583C5.993 5.873 8.279 3.596 7.99 1.769C10.985 1.199 10.755 0.919 11.983 0.879C12.373 0.879 13.331 0.66 13.571 0.979C13.671 1.109 13.571 1.809 13.621 1.979C13.101 1.979 10.386 2.138 10.026 2.527C9.68254 3.0953 9.50936 3.75021 9.527 4.414C9.467 4.874 8.888 9.836 8.968 10.275C8.96863 10.3217 8.9795 10.3678 8.99983 10.4099C9.02016 10.452 9.04947 10.4891 9.08569 10.5186C9.12191 10.5482 9.16417 10.5694 9.20949 10.5809C9.2548 10.5924 9.30208 10.5938 9.348 10.585C9.508 10.585 10.196 6.012 10.206 5.932C10.5923 6.03698 10.9983 6.04726 11.3895 5.96196C11.7806 5.87666 12.1454 5.6983 12.453 5.442C12.8377 5.17569 13.1564 4.82498 13.3849 4.41665C13.6133 4.00832 13.7454 3.55318 13.771 3.086H16.247C16.1521 3.47153 16.1439 3.87329 16.2229 4.26238C16.302 4.65146 16.4663 5.01819 16.704 5.33617C16.9417 5.65415 17.247 5.91547 17.5979 6.10132C17.9487 6.28717 18.3364 6.39294 18.733 6.411C18.533 6.911 18.313 7.41 18.084 7.919L17.784 8.748C17.654 9.148 18.274 9.477 18.444 9.088C18.494 8.948 18.404 9.179 18.773 8.259ZM4.675 4.904C4.575 4.204 4.385 3.276 4.385 3.256C4.295 2.537 4.535 2.816 5.204 2.537C5.84737 2.27037 6.51613 2.06967 7.2 1.938C7.06 2.718 5.452 4.784 4.674 4.904M11.883 4.464C10.625 5.463 10.884 5.164 10.325 5.244C10.407 4.624 10.5237 4.01133 10.675 3.406C10.765 3.406 11.673 3.216 13.061 3.126C12.901 3.686 12.182 4.215 11.883 4.464ZM17.783 4.834C16.785 3.835 16.955 3.246 16.935 3.156C17.744 3.156 18.552 3.266 19.341 3.346C19.761 3.346 19.171 5.233 19.031 5.643C18.5441 5.50288 18.11 5.22089 17.784 4.833" fill="white"/>
<path fill-rule="evenodd" clip-rule="evenodd" d="M21.509 14.799C21.249 13.67 20.56 12.802 19.402 12.931C19.262 12.691 19.822 10.535 18.144 9.786C17.9334 9.68236 17.7069 9.61476 17.474 9.586C16.994 9.516 16.504 9.616 16.087 9.866C15.557 10.116 13.321 10.785 13.321 10.805C12.852 10.925 8.329 11.733 7.061 11.803C5.603 11.853 3.187 11.653 4.125 10.515C4.17771 10.4578 4.20697 10.3828 4.20697 10.305C4.20697 10.2272 4.17771 10.1522 4.125 10.095C3.736 9.766 3.267 10.635 3.297 11.155C3.367 12.442 5.803 12.812 7.091 12.862C11.285 13.012 16.417 10.785 16.656 10.305C18.154 10.555 18.483 11.723 18.723 13.301C18.193 14.05 17.585 13.671 15.917 14.03C14.669 14.3 13.92 14.908 13.99 16.186C14.0004 16.6503 14.147 17.1013 14.4115 17.483C14.676 17.8647 15.0469 18.1603 15.478 18.333C15.772 18.4283 16.0717 18.5017 16.377 18.553C17.2111 18.7363 18.0768 18.7192 18.903 18.503C18.803 21.278 18.493 21.269 16.906 21.808C14.34 22.646 6.162 23.535 3.926 22.148C2.548 21.388 2.328 19.99 1.999 18.563C1.54261 16.6987 1.28781 14.7907 1.239 12.872C1.19 9.806 1.399 9.776 3.237 8.448C3.29662 8.3917 3.33388 8.31574 3.34191 8.23413C3.34995 8.15253 3.32822 8.07076 3.28073 8.00391C3.23324 7.93706 3.16319 7.88963 3.08348 7.87035C3.00378 7.85107 2.91979 7.86124 2.847 7.899C0.85 9.287 0.491 9.507 0.431 12.891C0.404554 14.8696 0.595702 16.8452 1.001 18.782C1.37 20.57 1.619 22.107 3.237 23.116C6.422 25.113 17.675 23.366 19.003 21.448C19.453 20.4647 19.6288 19.378 19.512 18.303C20.2139 18.0612 20.8037 17.572 21.1713 16.927C21.5388 16.2819 21.6588 15.5261 21.509 14.799ZM16.606 17.463C16.2146 17.427 15.8361 17.3044 15.498 17.104C14.968 16.674 14.769 15.596 15.358 15.217C16.756 14.328 18.573 15.077 19.352 13.599C19.442 13.599 20.51 13.289 20.76 14.947C21.02 16.994 18.563 17.923 16.606 17.463Z" fill="white"/>
<path fill-rule="evenodd" clip-rule="evenodd" d="M14.849 9.207C15.2072 9.06331 15.5912 8.99521 15.977 9.007C16.067 9.517 16.976 9.317 16.906 8.917C16.816 8.199 16.386 7.999 15.648 7.919C15.2822 7.88719 14.9144 7.95049 14.5802 8.10275C14.2461 8.25501 13.957 8.49106 13.741 8.788C13.544 9.13 13.451 9.522 13.471 9.916C13.381 10.306 14.28 10.216 14.29 9.856C14.48 9.406 14.58 9.326 14.849 9.207Z" fill="white"/>
</svg>
