<svg width="24" height="24" viewBox="0 0 24 24" fill="none" xmlns="http://www.w3.org/2000/svg">
<path fill-rule="evenodd" clip-rule="evenodd" d="M12.0226 10.2182C12.7362 10.2182 13.4207 9.93468 13.9253 9.43003C14.43 8.92539 14.7135 8.24095 14.7135 7.52727C14.7135 6.8136 14.43 6.12916 13.9253 5.62451C13.4207 5.11987 12.7362 4.83636 12.0226 4.83636C11.3089 4.83636 10.6244 5.11987 10.1198 5.62451C9.61515 6.12916 9.33165 6.8136 9.33165 7.52727C9.33165 8.24095 9.61515 8.92539 10.1198 9.43003C10.6244 9.93468 11.3089 10.2182 12.0226 10.2182ZM12.0226 6.18182C12.3794 6.18182 12.7216 6.32357 12.9739 6.57589C13.2263 6.82821 13.368 7.17044 13.368 7.52727C13.368 7.88411 13.2263 8.22633 12.9739 8.47865C12.7216 8.73097 12.3794 8.87273 12.0226 8.87273C11.6657 8.87273 11.3235 8.73097 11.0712 8.47865C10.8189 8.22633 10.6771 7.88411 10.6771 7.52727C10.6771 7.17044 10.8189 6.82821 11.0712 6.57589C11.3235 6.32357 11.6657 6.18182 12.0226 6.18182Z" fill="white"/>
<path fill-rule="evenodd" clip-rule="evenodd" d="M5.96801 7.23935C5.96801 10.8357 9.5375 16.9455 12.0226 16.9455C14.509 16.9455 18.0771 10.8357 18.0771 7.23935C18.0771 3.69273 15.3768 0.8 12.0226 0.8C8.66834 0.8 5.96801 3.69273 5.96801 7.23935ZM16.7316 7.23935C16.7316 10.1899 13.5725 15.6 12.0226 15.6C10.4739 15.6 7.31346 10.1913 7.31346 7.23935C7.31346 4.41524 9.43255 2.14545 12.0226 2.14545C14.6126 2.14545 16.7316 4.41524 16.7316 7.23935Z" fill="white"/>
<path d="M16.6442 11.0793C16.4833 11.0101 16.3558 10.8808 16.2887 10.7191C16.2216 10.5573 16.2202 10.3757 16.2849 10.213C16.3495 10.0502 16.4751 9.9191 16.6349 9.84746C16.7947 9.77582 16.9761 9.76932 17.1407 9.82935C17.6878 10.0463 18.1808 10.3804 18.5852 10.808C18.9896 11.2357 19.2956 11.7466 19.4818 12.305L21.2766 17.6868C21.479 18.2938 21.5342 18.9402 21.4377 19.5727C21.3411 20.2052 21.0956 20.8057 20.7213 21.3247C20.347 21.8436 19.8547 22.2662 19.285 22.5575C18.7154 22.8488 18.0846 23.0004 17.4447 23H6.60037C5.96076 23 5.3303 22.848 4.76096 22.5565C4.19161 22.2651 3.69969 21.8425 3.32572 21.3236C2.95176 20.8047 2.70646 20.2043 2.61005 19.572C2.51364 18.9397 2.56888 18.2936 2.77121 17.6868L4.5647 12.305C4.75408 11.7366 5.06761 11.2175 5.48255 10.7853C5.89748 10.3532 6.40342 10.0188 6.96365 9.80647C7.04625 9.77511 7.13422 9.76032 7.22253 9.76296C7.31085 9.7656 7.39778 9.7856 7.47836 9.82183C7.55895 9.85806 7.63161 9.90981 7.69219 9.97413C7.75278 10.0384 7.8001 10.1141 7.83146 10.1967C7.86283 10.2793 7.87761 10.3672 7.87498 10.4555C7.87234 10.5439 7.85234 10.6308 7.8161 10.7114C7.77987 10.792 7.72812 10.8646 7.66381 10.9252C7.5995 10.9858 7.52388 11.0331 7.44128 11.0645C7.06732 11.2059 6.72959 11.429 6.45263 11.7173C6.17568 12.0057 5.96646 12.3521 5.84019 12.7315L4.0467 18.1133C3.91196 18.5178 3.87529 18.9486 3.93969 19.3701C4.00409 19.7916 4.16773 20.1917 4.41712 20.5376C4.66652 20.8834 4.99452 21.165 5.37411 21.3592C5.75369 21.5534 6.17399 21.6546 6.60037 21.6545H17.4474C17.8739 21.6545 18.2942 21.5531 18.6737 21.3588C19.0533 21.1644 19.3812 20.8826 19.6305 20.5366C19.8797 20.1906 20.0432 19.7904 20.1074 19.3688C20.1716 18.9473 20.1347 18.5165 19.9998 18.112L18.2076 12.7301C18.0834 12.3581 17.8794 12.0176 17.6098 11.7327C17.3402 11.4477 17.0115 11.2252 16.6469 11.0806" fill="white"/>
</svg>
