<svg width="22" height="22" viewBox="0 0 22 22" fill="none" xmlns="http://www.w3.org/2000/svg">
<path d="M17 7C17 10.613 13.131 14.429 11.607 15.795C11.4327 15.9282 11.2194 16.0003 11 16.0003C10.7806 16.0003 10.5673 15.9282 10.393 15.795C8.87 14.429 5 10.613 5 7C5 5.4087 5.63214 3.88258 6.75736 2.75736C7.88258 1.63214 9.4087 1 11 1C12.5913 1 14.1174 1.63214 15.2426 2.75736C16.3679 3.88258 17 5.4087 17 7Z" stroke="white" stroke-width="0.75" stroke-linecap="round" stroke-linejoin="round"/>
<path d="M11 9C12.1046 9 13 8.10457 13 7C13 5.89543 12.1046 5 11 5C9.89543 5 9 5.89543 9 7C9 8.10457 9.89543 9 11 9Z" stroke="white" stroke-width="0.75" stroke-linecap="round" stroke-linejoin="round"/>
<path d="M7.714 13H4.004C3.79433 13.0001 3.58999 13.0661 3.41987 13.1886C3.24976 13.3112 3.12247 13.4841 3.056 13.683L1.052 19.683C1.00176 19.8333 0.987966 19.9934 1.01175 20.1501C1.03554 20.3068 1.09623 20.4556 1.18882 20.5842C1.28141 20.7128 1.40324 20.8176 1.54428 20.8899C1.68532 20.9622 1.84152 20.9999 2 21H20C20.1584 20.9999 20.3144 20.9621 20.4554 20.8899C20.5963 20.8177 20.7181 20.713 20.8106 20.5845C20.9032 20.456 20.9639 20.3074 20.9878 20.1508C21.0117 19.9942 20.998 19.8343 20.948 19.684L18.948 13.684C18.8817 13.4848 18.7543 13.3115 18.584 13.1888C18.4136 13.066 18.209 12.9999 17.999 13H14.287" stroke="white" stroke-width="0.75" stroke-linecap="round" stroke-linejoin="round"/>
</svg>
