<svg width="24" height="24" viewBox="0 0 24 24" fill="none" xmlns="http://www.w3.org/2000/svg">
<path d="M12 3.75C11.7702 3.75 11.5426 3.79527 11.3303 3.88321C11.118 3.97116 10.9251 4.10006 10.7626 4.26256C10.6001 4.42507 10.4712 4.61798 10.3832 4.8303C10.2953 5.04262 10.25 5.27019 10.25 5.5C10.25 5.72981 10.2953 5.95738 10.3832 6.1697C10.4712 6.38202 10.6001 6.57493 10.7626 6.73744C10.9251 6.89994 11.118 7.02884 11.3303 7.11679C11.5426 7.20474 11.7702 7.25 12 7.25C12.4641 7.25 12.9092 7.06563 13.2374 6.73744C13.5656 6.40925 13.75 5.96413 13.75 5.5C13.75 5.03587 13.5656 4.59075 13.2374 4.26256C12.9092 3.93437 12.4641 3.75 12 3.75ZM9 5.5C9 4.70435 9.31607 3.94129 9.87868 3.37868C10.4413 2.81607 11.2044 2.5 12 2.5C12.7956 2.5 13.5587 2.81607 14.1213 3.37868C14.6839 3.94129 15 4.70435 15 5.5C15 6.29565 14.6839 7.05871 14.1213 7.62132C13.5587 8.18393 12.7956 8.5 12 8.5C11.2044 8.5 10.4413 8.18393 9.87868 7.62132C9.31607 7.05871 9 6.29565 9 5.5ZM18.5 4.75C18.1685 4.75 17.8505 4.8817 17.6161 5.11612C17.3817 5.35054 17.25 5.66848 17.25 6C17.25 6.33152 17.3817 6.64946 17.6161 6.88388C17.8505 7.1183 18.1685 7.25 18.5 7.25C18.8315 7.25 19.1495 7.1183 19.3839 6.88388C19.6183 6.64946 19.75 6.33152 19.75 6C19.75 5.66848 19.6183 5.35054 19.3839 5.11612C19.1495 4.8817 18.8315 4.75 18.5 4.75ZM16 6C16 5.33696 16.2634 4.70107 16.7322 4.23223C17.2011 3.76339 17.837 3.5 18.5 3.5C19.163 3.5 19.7989 3.76339 20.2678 4.23223C20.7366 4.70107 21 5.33696 21 6C21 6.66304 20.7366 7.29893 20.2678 7.76777C19.7989 8.23661 19.163 8.5 18.5 8.5C17.837 8.5 17.2011 8.23661 16.7322 7.76777C16.2634 7.29893 16 6.66304 16 6ZM4.25 6C4.25 5.66848 4.3817 5.35054 4.61612 5.11612C4.85054 4.8817 5.16848 4.75 5.5 4.75C5.83152 4.75 6.14946 4.8817 6.38388 5.11612C6.6183 5.35054 6.75 5.66848 6.75 6C6.75 6.33152 6.6183 6.64946 6.38388 6.88388C6.14946 7.1183 5.83152 7.25 5.5 7.25C5.16848 7.25 4.85054 7.1183 4.61612 6.88388C4.3817 6.64946 4.25 6.33152 4.25 6ZM5.5 3.5C4.83696 3.5 4.20107 3.76339 3.73223 4.23223C3.26339 4.70107 3 5.33696 3 6C3 6.66304 3.26339 7.29893 3.73223 7.76777C4.20107 8.23661 4.83696 8.5 5.5 8.5C6.16304 8.5 6.79893 8.23661 7.26777 7.76777C7.73661 7.29893 8 6.66304 8 6C8 5.33696 7.73661 4.70107 7.26777 4.23223C6.79893 3.76339 6.16304 3.5 5.5 3.5ZM7.5 11.625C7.5 11.0614 7.72388 10.5209 8.1224 10.1224C8.52091 9.72388 9.06141 9.5 9.625 9.5H14.375C14.9386 9.5 15.4791 9.72388 15.8776 10.1224C16.2761 10.5209 16.5 11.0614 16.5 11.625V17C16.5 18.1935 16.0259 19.3381 15.182 20.182C14.3381 21.0259 13.1935 21.5 12 21.5C10.8065 21.5 9.66193 21.0259 8.81802 20.182C7.97411 19.3381 7.5 18.1935 7.5 17V11.625ZM12 20.25C12.862 20.25 13.6886 19.9076 14.2981 19.2981C14.9076 18.6886 15.25 17.862 15.25 17V11.625C15.25 11.3929 15.1578 11.1704 14.9937 11.0063C14.8296 10.8422 14.6071 10.75 14.375 10.75H9.625C9.39294 10.75 9.17038 10.8422 9.00628 11.0063C8.84219 11.1704 8.75 11.3929 8.75 11.625V17C8.75 17.862 9.09241 18.6886 9.7019 19.2981C10.3114 19.9076 11.138 20.25 12 20.25ZM5.5 18.75C5.91805 18.7501 6.32788 18.6338 6.6835 18.414C6.793 18.827 6.9495 19.2205 7.1465 19.589C6.61317 19.8733 6.0153 20.0147 5.41111 19.9993C4.80692 19.984 4.217 19.8124 3.69879 19.5014C3.18059 19.1904 2.75175 18.7504 2.45405 18.2245C2.15635 17.6985 1.99992 17.1044 2 16.5V11.6255C1.99993 11.3464 2.05485 11.07 2.16161 10.8121C2.26837 10.5543 2.42489 10.32 2.62222 10.1226C2.81955 9.9252 3.05383 9.76863 3.31168 9.6618C3.56953 9.55498 3.8459 9.5 4.125 9.5H6.875C7.01933 9.50033 7.1595 9.51417 7.2955 9.5415C6.98411 9.88905 6.75464 10.302 6.624 10.75H4.125C3.89294 10.75 3.67038 10.8422 3.50628 11.0063C3.34219 11.1704 3.25 11.3929 3.25 11.625V16.5C3.25 17.0967 3.48705 17.669 3.90901 18.091C4.33097 18.5129 4.90326 18.75 5.5 18.75ZM18.5 20C17.9258 20.0003 17.3604 19.8593 16.8535 19.5895C17.0505 19.2205 17.207 18.827 17.3165 18.414C17.6573 18.6248 18.0483 18.7407 18.449 18.7498C18.8497 18.7589 19.2455 18.6608 19.5955 18.4657C19.9456 18.2705 20.2372 17.9854 20.4401 17.6399C20.6431 17.2943 20.7501 16.9008 20.75 16.5V11.625C20.75 11.3929 20.6578 11.1704 20.4937 11.0063C20.3296 10.8422 20.1071 10.75 19.875 10.75H17.376C17.2452 10.302 17.0156 9.889 16.704 9.5415C16.8407 9.51417 16.981 9.50033 17.125 9.5H19.875C20.4386 9.5 20.9791 9.72388 21.3776 10.1224C21.7761 10.5209 22 11.0614 22 11.625V16.5C22 17.4283 21.6313 18.3185 20.9749 18.9749C20.3185 19.6313 19.4283 20 18.5 20Z" fill="white"/>
</svg>
