<svg width="15" height="14" viewBox="0 0 15 14" fill="none" xmlns="http://www.w3.org/2000/svg">
<g clip-path="url(#clip0_543_4591)">
<path d="M14.1375 0H1.3625C1.0125 0 0.75 0.2625 0.75 0.6125V13.475C0.75 13.7375 1.0125 14 1.3625 14H14.225C14.575 14 14.8375 13.7375 14.8375 13.3875V0.6125C14.75 0.2625 14.4875 0 14.1375 0ZM4.8625 11.9H2.85V5.25H4.95V11.9H4.8625ZM3.9 4.375C3.2 4.375 2.675 3.7625 2.675 3.15C2.675 2.45 3.2 1.925 3.9 1.925C4.6 1.925 5.125 2.45 5.125 3.15C5.0375 3.7625 4.5125 4.375 3.9 4.375ZM12.65 11.9H10.55V8.6625C10.55 7.875 10.55 6.9125 9.5 6.9125C8.45 6.9125 8.275 7.7875 8.275 8.6625V11.9875H6.175V5.25H8.1875V6.125C8.45 5.6 9.15 5.075 10.1125 5.075C12.2125 5.075 12.5625 6.475 12.5625 8.225V11.9H12.65Z" fill="#E5673F"/>
</g>
<defs>
<clipPath id="clip0_543_4591">
<rect width="14" height="14" fill="#E5673F" transform="translate(0.75)"/>
</clipPath>
</defs>
</svg>
