<svg width="15" height="14" viewBox="0 0 15 14" fill="none" xmlns="http://www.w3.org/2000/svg">
<path d="M7.75 1.26087C9.619 1.26087 9.84037 1.26875 10.5789 1.302C11.0226 1.30733 11.4622 1.38903 11.8783 1.5435C12.1826 1.65592 12.4577 1.83535 12.6832 2.0685C12.9164 2.29407 13.0958 2.56919 13.2083 2.8735C13.3627 3.28956 13.4444 3.7291 13.4497 4.17287C13.483 4.91138 13.4909 5.13538 13.4909 7.00175C13.4909 8.86812 13.483 9.09212 13.4497 9.83062C13.4444 10.2744 13.3627 10.7139 13.2083 11.13C13.092 11.432 12.9138 11.7062 12.685 11.935C12.4562 12.1638 12.182 12.342 11.88 12.4583C11.4639 12.6127 11.0244 12.6944 10.5806 12.6997C9.84212 12.733 9.61812 12.7409 7.75175 12.7409C5.88538 12.7409 5.66138 12.733 4.92287 12.6997C4.4791 12.6944 4.03956 12.6127 3.6235 12.4583C3.31919 12.3458 3.04407 12.1664 2.8185 11.9332C2.58535 11.7077 2.40592 11.4326 2.2935 11.1283C2.13903 10.7122 2.05733 10.2726 2.052 9.82887C2.01875 9.09037 2.01087 8.86637 2.01087 7C2.01087 5.13363 2.01875 4.90963 2.052 4.17113C2.05733 3.72735 2.13903 3.28781 2.2935 2.87175C2.40592 2.56744 2.58535 2.29232 2.8185 2.06675C3.04407 1.8336 3.31919 1.65417 3.6235 1.54175C4.03956 1.38728 4.4791 1.30558 4.92287 1.30025C5.66138 1.267 5.88538 1.25912 7.75175 1.25912M7.75 0C5.84862 0 5.61062 0.007875 4.8625 0.042C4.28234 0.053798 3.70837 0.163857 3.165 0.3675C2.69772 0.542989 2.27452 0.81865 1.92513 1.17513C1.56865 1.52452 1.29299 1.94772 1.1175 2.415C0.913857 2.95837 0.803798 3.53234 0.792 4.1125C0.757875 4.86062 0.75 5.09862 0.75 7C0.75 8.90137 0.757875 9.13937 0.792 9.8875C0.803798 10.4677 0.913857 11.0416 1.1175 11.585C1.29299 12.0523 1.56865 12.4755 1.92513 12.8249C2.27452 13.1813 2.69772 13.457 3.165 13.6325C3.70893 13.8363 4.2835 13.9464 4.86425 13.958C5.61063 13.9921 5.84862 14 7.75 14C9.65137 14 9.88937 13.9921 10.6375 13.958C11.2183 13.9464 11.7928 13.8363 12.3368 13.6325C12.8017 13.4525 13.224 13.1774 13.5766 12.8248C13.9292 12.4723 14.2043 12.05 14.3842 11.585C14.5881 11.0411 14.6981 10.4665 14.7098 9.88575C14.7439 9.13938 14.7518 8.90137 14.7518 6.99825C14.7518 5.09513 14.7439 4.85887 14.7098 4.11075C14.6972 3.53108 14.5865 2.95772 14.3825 2.415C14.207 1.94772 13.9313 1.52452 13.5749 1.17513C13.2255 0.81865 12.8023 0.542989 12.335 0.3675C11.7916 0.163857 11.2177 0.053798 10.6375 0.042C9.88937 0.007875 9.65137 0 7.75 0Z" fill="#E5673F"/>
<path d="M7.75075 3.40625C7.03983 3.40625 6.34487 3.61706 5.75375 4.01203C5.16264 4.407 4.70193 4.96839 4.42987 5.62519C4.15781 6.282 4.08662 7.00474 4.22532 7.702C4.36401 8.39927 4.70636 9.03975 5.20906 9.54245C5.71176 10.0451 6.35223 10.3875 7.0495 10.5262C7.74676 10.6649 8.4695 10.5937 9.12631 10.3216C9.78312 10.0496 10.3445 9.58886 10.7395 8.99775C11.1344 8.40663 11.3453 7.71167 11.3453 7.00075C11.3453 6.52871 11.2523 6.0613 11.0716 5.62519C10.891 5.18909 10.6262 4.79283 10.2924 4.45905C9.95867 4.12527 9.56241 3.86051 9.12631 3.67987C8.6902 3.49922 8.22279 3.40625 7.75075 3.40625ZM7.75075 9.33437C7.2892 9.33437 6.83802 9.19751 6.45426 8.94109C6.0705 8.68467 5.77139 8.3202 5.59476 7.89379C5.41814 7.46738 5.37192 6.99816 5.46197 6.54548C5.55201 6.0928 5.77427 5.67699 6.10063 5.35063C6.42699 5.02426 6.8428 4.80201 7.29548 4.71197C7.74816 4.62192 8.21738 4.66813 8.64379 4.84476C9.07021 5.02139 9.43467 5.32049 9.69109 5.70426C9.94751 6.08802 10.0844 6.5392 10.0844 7.00075C10.0844 7.61967 9.83851 8.21323 9.40087 8.65087C8.96323 9.08851 8.36967 9.33437 7.75075 9.33437Z" fill="#E5673F"/>
<path d="M11.4865 4.10383C11.9504 4.10383 12.3265 3.72775 12.3265 3.26383C12.3265 2.79991 11.9504 2.42383 11.4865 2.42383C11.0226 2.42383 10.6465 2.79991 10.6465 3.26383C10.6465 3.72775 11.0226 4.10383 11.4865 4.10383Z" fill="#E5673F"/>
</svg>
