<svg width="16" height="12" viewBox="0 0 16 12" fill="none" xmlns="http://www.w3.org/2000/svg">
<path d="M15.5625 3C15.375 1.78125 14.8125 0.9375 13.5 0.75C11.4375 0.375 8.25 0.375 8.25 0.375C8.25 0.375 5.0625 0.375 3 0.75C1.6875 0.9375 1.03125 1.78125 0.9375 3C0.75 4.21875 0.75 6 0.75 6C0.75 6 0.75 7.78125 0.9375 9C1.125 10.2188 1.6875 11.0625 3 11.25C5.0625 11.625 8.25 11.625 8.25 11.625C8.25 11.625 11.4375 11.625 13.5 11.25C14.8125 10.9688 15.375 10.2188 15.5625 9C15.75 7.78125 15.75 6 15.75 6C15.75 6 15.75 4.21875 15.5625 3ZM6.375 8.8125V3.1875L11.0625 6L6.375 8.8125Z" fill="#E5673F"/>
</svg>
